<svg width="37" height="37" viewBox="0 0 37 37" fill="none" xmlns="http://www.w3.org/2000/svg">
<path d="M3.33333 18.3333C3.33333 10.0491 10.0491 3.33333 18.3333 3.33333C26.6176 3.33333 33.3333 10.0491 33.3333 18.3333C33.3333 26.6176 26.6176 33.3333 18.3333 33.3333C10.0491 33.3333 3.33333 26.6176 3.33333 18.3333ZM18.3333 0C8.20811 0 0 8.20811 0 18.3333C0 28.4586 8.20811 36.6667 18.3333 36.6667C28.4586 36.6667 36.6667 28.4586 36.6667 18.3333C36.6667 8.20811 28.4586 0 18.3333 0ZM20 11.6667C20 10.7462 19.2538 10 18.3333 10C17.4129 10 16.6667 10.7462 16.6667 11.6667V16.6667H11.6667C10.7462 16.6667 10 17.4129 10 18.3333C10 19.2538 10.7462 20 11.6667 20H16.6667V25C16.6667 25.9205 17.4129 26.6667 18.3333 26.6667C19.2538 26.6667 20 25.9205 20 25V20H25C25.9205 20 26.6667 19.2538 26.6667 18.3333C26.6667 17.4129 25.9205 16.6667 25 16.6667H20V11.6667Z" fill="#444444"/>
</svg>
