<svg width="21" height="21" viewBox="0 0 21 21" fill="none" xmlns="http://www.w3.org/2000/svg">
<path d="M7.57173 0.841309C6.64246 0.841309 5.88913 1.59464 5.88913 2.52391V3.36522H4.20652H2.52392C2.05928 3.36522 1.68262 3.74188 1.68262 4.20652C1.68262 4.67116 2.05928 5.04782 2.52392 5.04782H3.36522V16.8261C3.36522 18.22 4.49521 19.35 5.88913 19.35H14.3022C15.6961 19.35 16.8261 18.22 16.8261 16.8261V5.04782H17.6674C18.132 5.04782 18.5087 4.67116 18.5087 4.20652C18.5087 3.74188 18.132 3.36522 17.6674 3.36522H15.9848H14.3022V2.52391C14.3022 1.59464 13.5488 0.841309 12.6195 0.841309H7.57173ZM12.6195 3.36522H7.57173V2.52391H12.6195V3.36522ZM6.73043 5.04782H13.4609H15.1435V16.8261C15.1435 17.2907 14.7668 17.6674 14.3022 17.6674H5.88913C5.42449 17.6674 5.04783 17.2907 5.04783 16.8261V5.04782H6.73043ZM9.25434 9.25433C9.25434 8.7897 8.87767 8.41303 8.41304 8.41303C7.9484 8.41303 7.57173 8.78969 7.57173 9.25433V13.4608C7.57173 13.9255 7.9484 14.3021 8.41304 14.3021C8.87767 14.3021 9.25434 13.9255 9.25434 13.4608V9.25433ZM11.7782 8.41303C12.2429 8.41303 12.6195 8.7897 12.6195 9.25433V13.4608C12.6195 13.9255 12.2429 14.3021 11.7782 14.3021C11.3136 14.3021 10.9369 13.9255 10.9369 13.4608V9.25433C10.9369 8.78969 11.3136 8.41303 11.7782 8.41303Z" fill="#444444"/>
</svg>
